<svg width="170" height="170" viewBox="0 0 170 170" fill="none" xmlns="http://www.w3.org/2000/svg">
<circle cx="85" cy="85" r="85" fill="#282C34"/>
<path d="M33.1077 132.759H35.8162V137.634H32.0945C28.9037 137.634 26.3191 136.298 24.3062 133.58L24.3061 133.579C22.3129 130.89 21.2803 126.94 21.2803 121.658V115.314C21.2803 110.473 20.4963 106.628 18.8779 103.825C17.2291 100.941 14.6782 99.4869 11.2956 99.4869H10.3602V93.8452H11.2956C14.676 93.8452 17.2274 92.4074 18.8773 89.5505L18.8785 89.5486C20.496 86.7185 21.2803 82.8597 21.2803 78.0181V71.6744C21.2803 66.3923 22.3129 62.4421 24.3061 59.753L24.3062 59.7528C26.3191 57.0341 28.9037 55.6978 32.0945 55.6978H35.8162V60.5731H33.1077C30.4251 60.5731 28.3907 61.5233 27.116 63.4827L27.114 63.4858C25.8898 65.3984 25.3182 68.3997 25.3182 72.3982V79.8488C25.3182 83.7343 24.6068 86.9686 23.211 89.5742C21.8081 92.1646 19.8624 94.2133 17.3686 95.7277L17.1282 95.8737V96.1551V97.177V97.4583L17.3686 97.6043C19.8614 99.1182 21.8071 101.18 23.2104 103.799L23.2114 103.801C24.6065 106.378 25.3182 109.597 25.3182 113.483V120.934C25.3182 124.932 25.8898 127.934 27.114 129.846L27.116 129.849C28.3907 131.809 30.4251 132.759 33.1077 132.759Z" fill="#514A9D" stroke="white"/>
<path d="M147.293 59.4553C149.394 62.2652 150.445 66.3383 150.445 71.6744V78.0181C150.445 82.8149 151.224 86.5757 152.781 89.3005L153.597 96.1551C151.027 94.5941 149.019 92.4795 147.574 89.8115C146.13 87.115 145.407 83.7941 145.407 79.8488V72.3982C145.407 68.4245 144.826 65.5436 143.662 63.7554M147.293 59.4553C145.21 56.6169 142.49 55.1978 139.131 55.1978H135.409V55.6978M147.293 59.4553L147.293 59.4553L147.293 59.4553ZM135.409 55.6978H134.909V60.5731H135.409M135.409 55.6978H139.131C142.322 55.6978 144.896 57.0337 146.89 59.7511L146.89 59.7511L146.892 59.7547C148.903 62.4436 149.945 66.3931 149.945 71.6744V78.0181C149.945 82.8597 150.73 86.7185 152.347 89.5485L152.348 89.5505C153.998 92.4074 156.549 93.8452 159.93 93.8452H160.865V99.4869H159.93C156.547 99.4869 153.996 100.941 152.347 103.825C150.729 106.628 149.945 110.473 149.945 115.314V121.658C149.945 126.939 148.903 130.889 146.892 133.578L146.89 133.581C144.896 136.298 142.322 137.634 139.131 137.634H135.409V132.759H138.118C140.799 132.759 142.827 131.809 144.082 129.848C145.327 127.934 145.907 124.932 145.907 120.934V113.483C145.907 109.597 146.619 106.378 148.014 103.801L148.015 103.799C149.418 101.18 151.364 99.1182 153.857 97.6043L154.097 97.4583V97.177V96.1551V95.8737L153.857 95.7277C151.363 94.2134 149.417 92.1648 148.014 89.5745C146.619 86.9687 145.907 83.7343 145.907 79.8488V72.3982C145.907 68.4002 145.327 65.3979 144.082 63.4843M135.409 55.6978V60.5731M135.409 60.5731V61.0731H138.118C140.669 61.0731 142.518 61.9672 143.662 63.7554M135.409 60.5731H138.118C140.799 60.5731 142.826 61.5228 144.082 63.4843M143.662 63.7554L144.081 63.4826C144.081 63.4832 144.082 63.4837 144.082 63.4843M143.662 63.7554L144.083 63.4859C144.083 63.4854 144.082 63.4848 144.082 63.4843" fill="#514A9D" stroke="white"/>
<path d="M118.697 111.331L118.858 111.148C118.808 111.119 118.758 111.088 118.706 111.057C118.062 110.663 117.288 110.19 115.593 110.864L118.502 111.46L118.502 111.46L118.502 111.46L118.501 111.458L118.497 111.453L118.486 111.436L118.476 111.422L118.483 111.431C118.484 111.433 118.486 111.435 118.488 111.438C118.49 111.44 118.493 111.443 118.495 111.446C118.497 111.449 118.501 111.453 118.505 111.458M118.697 111.331L118.505 111.458M118.697 111.331L118.706 111.325L118.724 111.313L118.505 111.458M118.697 111.331L118.547 111.501C118.528 111.484 118.514 111.468 118.509 111.463C118.508 111.461 118.506 111.46 118.505 111.458M68.3533 50.0857L68.3541 49.9159L68.3746 50.0866C68.4614 50.0817 68.5476 50.0771 68.6333 50.073C73.8582 50.0807 78.9572 51.5846 83.2648 54.3858C87.5753 57.189 90.8912 61.1597 92.7833 65.7756L92.9701 66.2313L93.4285 66.0515C97.7122 64.3714 102.276 63.4258 106.909 63.2593C115.729 62.9745 124.389 65.5252 131.487 70.4919L131.468 70.5267C132.335 71.2088 132.766 71.9031 132.9 72.525C133.032 73.1373 132.889 73.739 132.487 74.2849L132.503 74.3025L117.907 89.2158C117.602 89.3705 117.336 89.5025 116.999 89.5633C116.654 89.6258 116.202 89.6165 115.559 89.3945C113.237 87.9962 110.527 87.2938 107.782 87.3772L107.781 87.3773C104.15 87.4953 100.712 88.9786 98.2246 91.5088L98.5812 91.8593L98.2246 91.5088C95.7366 94.0399 94.4042 97.4118 94.5293 100.884C94.6544 104.355 96.2262 107.632 98.8893 109.994C101.551 112.356 105.087 113.612 108.718 113.494L108.72 113.494C111.238 113.402 113.681 112.653 115.783 111.327C116.65 110.983 117.198 110.985 117.583 111.078C117.908 111.157 118.14 111.298 118.416 111.466C118.496 111.515 118.579 111.565 118.669 111.617L118.675 111.611L133.755 124.585L134.006 124.864C134.752 125.694 134.834 126.462 134.66 127.105C134.476 127.784 133.987 128.382 133.501 128.77L133.506 128.777C126.806 134.186 118.382 137.3 109.588 137.612C99.2655 137.943 89.2265 134.391 81.6511 127.735C74.0762 121.079 69.577 111.858 69.1216 102.078L68.1222 102.101V129.901C68.1222 134.211 64.838 137.634 60.8115 137.634H49.977C45.9504 137.634 42.6663 134.211 42.6663 129.901V74.7049V57.8057C42.6663 53.4956 45.9504 50.0726 49.977 50.0726H60.8115C60.926 50.0726 61.0395 50.0754 61.1522 50.0811L61.1575 50.0539L68.3533 50.0857ZM133.791 123.956L119.018 111.246L133.791 123.956Z" fill="url(#paint0_linear)" stroke="white"/>
<path d="M93.2463 65.5857C99.7776 82.2958 87.163 99.9445 68.6156 99.8404C69.5473 79.7534 83.4965 69.2917 93.2463 65.5857Z" fill="#514A9D"/>
<path d="M93.7729 65.0841C94.8901 45.9168 108.072 35.7585 117.588 31.9798C123.512 48.0418 111.531 64.8575 93.7729 65.0841Z" fill="#24C6DC" stroke="#FFFDFD"/>
<defs>
<linearGradient id="paint0_linear" x1="49.515" y1="57.8698" x2="118.091" y2="133.149" gradientUnits="userSpaceOnUse">
<stop stop-color="#24C6DC"/>
<stop offset="1" stop-color="#514A9D"/>
</linearGradient>
</defs>
</svg>
