<svg width="153" height="108" viewBox="0 0 153 108" fill="none" xmlns="http://www.w3.org/2000/svg">
<path d="M27.3162 107.134H23.0945C19.7359 107.134 17.0059 105.715 14.9044 102.877C12.8217 100.067 11.7803 95.9938 11.7803 90.6577V84.314C11.7803 79.5171 11.0017 75.7705 9.44436 73.0741C7.88702 70.3492 5.50409 68.9868 2.29561 68.9868H0.860229V62.3451H2.29561C5.50409 62.3451 7.88702 60.9969 9.44436 58.3004C11.0017 55.5756 11.7803 51.8148 11.7803 47.018V40.6743C11.7803 35.3382 12.8217 31.2651 14.9044 28.4552C17.0059 25.6168 19.7359 24.1977 23.0945 24.1977H27.3162V30.073H24.1077C21.5559 30.073 19.6984 30.9671 18.5351 32.7553C17.3905 34.5435 16.8182 37.4244 16.8182 41.3981V48.8487C16.8182 52.794 16.0959 56.1149 14.6511 58.8114C13.2064 61.4794 11.1987 63.594 8.62816 65.155V66.1769C11.1987 67.738 13.2064 69.8667 14.6511 72.5631C16.0959 75.2312 16.8182 78.5379 16.8182 82.4832V89.9339C16.8182 93.9076 17.3905 96.7885 18.5351 98.5767C19.6984 100.365 21.5559 101.259 24.1077 101.259H27.3162V107.134Z" fill="#514A9D"/>
<path d="M152.365 68.9868H150.93C147.721 68.9868 145.338 70.3492 143.781 73.0741C142.224 75.7705 141.445 79.5171 141.445 84.314V90.6577C141.445 95.9938 140.394 100.067 138.293 102.877C136.21 105.715 133.49 107.134 130.131 107.134H125.909V101.259H129.118C131.669 101.259 133.518 100.365 134.662 98.5767C135.826 96.7885 136.407 93.9076 136.407 89.9339V82.4832C136.407 78.5379 137.13 75.2312 138.574 72.5631C140.019 69.8667 142.027 67.738 144.597 66.1769V65.155C142.027 63.594 140.019 61.4794 138.574 58.8114C137.13 56.1149 136.407 52.794 136.407 48.8487V41.3981C136.407 37.4244 135.826 34.5435 134.662 32.7553C133.518 30.9671 131.669 30.073 129.118 30.073H125.909V24.1977H130.131C133.49 24.1977 136.21 25.6168 138.293 28.4552C140.394 31.2651 141.445 35.3382 141.445 40.6743V47.018C141.445 51.8148 142.224 55.5756 143.781 58.3004C145.338 60.9969 147.721 62.3451 150.93 62.3451H152.365V68.9868Z" fill="#514A9D"/>
<path fill-rule="evenodd" clip-rule="evenodd" d="M52.0957 18.5536L52.1774 18.5817C52.0561 18.5756 51.9342 18.5726 51.8115 18.5726H40.977C36.6498 18.5726 33.1663 22.2446 33.1663 26.8057V43.7049V98.9011C33.1663 103.462 36.6498 107.134 40.977 107.134H51.8115C56.1387 107.134 59.6222 103.462 59.6222 98.9011V71.1011C60.0841 81.0214 64.6475 90.3678 72.3211 97.1105C79.9948 103.853 90.159 107.447 100.606 107.112C109.524 106.795 118.069 103.632 124.861 98.1331L124.813 98.161C125.893 97.2976 127.09 95.4355 125.378 93.5298C125.378 93.5298 125.465 93.5402 125.471 93.541L109.882 80.1295C109.884 80.1313 109.919 80.1842 109.919 80.1842C109.223 79.7827 108.477 79.1143 106.592 79.8644L106.589 79.8574C104.547 81.1648 102.162 81.9049 99.7017 81.9946C96.1955 82.1086 92.7852 80.8948 90.2211 78.6202C87.657 76.3456 86.149 73.1965 86.029 69.8657C85.909 66.5349 87.1868 63.2952 89.5812 60.8593C91.9756 58.4235 95.2906 56.991 98.7968 56.877C101.48 56.7955 104.127 57.4917 106.384 58.8732L106.367 58.8571C107.82 59.3678 108.558 58.9524 109.206 58.6251L109.203 58.6286L123.989 43.5211L123.89 43.5813C124.845 42.2835 124.637 40.5975 122.777 39.1338L122.925 39.1884C115.708 34.0886 106.881 31.4692 97.8918 31.7596C93.2031 31.928 88.5829 32.885 84.246 34.586C82.3142 29.8732 78.9305 25.8236 74.5374 22.9667C70.1442 20.1098 64.9459 18.5785 59.6219 18.573C59.5301 18.5773 59.4382 18.5822 59.3464 18.5874L59.3556 18.5857L52.0957 18.5536Z" fill="url(#paint0_linear)"/>
<path d="M84.2463 34.5857C90.7776 51.2958 78.163 68.9445 59.6156 68.8404C60.5473 48.7534 74.4965 38.2917 84.2463 34.5857Z" fill="#514A9D"/>
<path d="M108.877 0.331299C115.408 17.0414 102.793 34.6902 84.246 34.586C85.1776 14.499 99.1268 4.03729 108.877 0.331299Z" fill="#24C6DC"/>
<defs>
<linearGradient id="paint0_linear" x1="40.515" y1="26.8698" x2="109.091" y2="102.149" gradientUnits="userSpaceOnUse">
<stop stop-color="#24C6DC"/>
<stop offset="1" stop-color="#514A9D"/>
</linearGradient>
</defs>
</svg>
